HIERARCHY
ROOT Hips
{
	OFFSET 0.000000 0.000000 0.000000
	CHANNELS 6 Xposition Yposition Zposition Zrotation Xrotation Yrotation
	JOINT Spine1
	{
		OFFSET 0.000000 0.000003 -6.386978
		CHANNELS 6 Xposition Yposition Zposition Zrotation Xrotation Yrotation
		JOINT Neck
		{
			OFFSET 0.000000 0.000003 -5.091924
			CHANNELS 6 Xposition Yposition Zposition Zrotation Xrotation Yrotation
			JOINT Head
			{
				OFFSET 0.000000 0.417763 -3.237664
				CHANNELS 6 Xposition Yposition Zposition Zrotation Xrotation Yrotation
				End Site
				{
					OFFSET 0.000000 0.000003 -4.177618
				}
			}
		}
		JOINT LeftShoulder
		{
			OFFSET 0.841264 -0.110427 -4.111457
			CHANNELS 6 Xposition Yposition Zposition Zrotation Xrotation Yrotation
			JOINT LeftArm
			{
				OFFSET 3.001868 0.000000 0.000000
				CHANNELS 6 Xposition Yposition Zposition Zrotation Xrotation Yrotation
				JOINT LeftForeArm
				{
					OFFSET 5.886182 0.000000 0.000000
					CHANNELS 6 Xposition Yposition Zposition Zrotation Xrotation Yrotation
					JOINT LeftHand
					{
						OFFSET 5.470435 0.000000 0.000000
						CHANNELS 6 Xposition Yposition Zposition Zrotation Xrotation Yrotation
						End Site
						{
							OFFSET 3.133214 0.000000 0.000000
						}
					}
				}
			}
		}
		JOINT RightShoulder
		{
			OFFSET -0.829658 -0.110427 -4.111457
			CHANNELS 6 Xposition Yposition Zposition Zrotation Xrotation Yrotation
			JOINT RightArm
			{
				OFFSET -3.001868 0.000000 0.000000
				CHANNELS 6 Xposition Yposition Zposition Zrotation Xrotation Yrotation
				JOINT RightForeArm
				{
					OFFSET -5.886182 0.000000 0.000000
					CHANNELS 6 Xposition Yposition Zposition Zrotation Xrotation Yrotation
					JOINT RightHand
					{
						OFFSET -5.470438 0.000000 0.000000
						CHANNELS 6 Xposition Yposition Zposition Zrotation Xrotation Yrotation
						End Site
						{
							OFFSET -3.133214 0.000000 0.000000
						}
					}
				}
			}
		}
	}
	JOINT LeftUpLeg
	{
		OFFSET 2.088814 0.000000 0.000000
		CHANNELS 6 Xposition Yposition Zposition Zrotation Xrotation Yrotation
		JOINT LeftLeg
		{
			OFFSET 0.000000 -0.000004 8.784826
			CHANNELS 6 Xposition Yposition Zposition Zrotation Xrotation Yrotation
			JOINT LeftFoot
			{
				OFFSET 0.000000 -0.000004 9.209890
				CHANNELS 6 Xposition Yposition Zposition Zrotation Xrotation Yrotation
				JOINT LeftToeBase
				{
					OFFSET 0.000000 3.133221 1.357730
					CHANNELS 6 Xposition Yposition Zposition Zrotation Xrotation Yrotation
					End Site
					{
						OFFSET 0.000000 0.835523 0.000000
					}
				}
			}
		}
	}
	JOINT RightUpLeg
	{
		OFFSET -2.088814 0.000000 0.000000
		CHANNELS 6 Xposition Yposition Zposition Zrotation Xrotation Yrotation
		JOINT RightLeg
		{
			OFFSET 0.000000 -0.000004 8.784826
			CHANNELS 6 Xposition Yposition Zposition Zrotation Xrotation Yrotation
			JOINT RightFoot
			{
				OFFSET 0.000000 -0.000004 9.209890
				CHANNELS 6 Xposition Yposition Zposition Zrotation Xrotation Yrotation
				JOINT RightToeBase
				{
					OFFSET 0.000000 3.133221 1.357730
					CHANNELS 6 Xposition Yposition Zposition Zrotation Xrotation Yrotation
					End Site
					{
						OFFSET 0.000000 0.835523 0.000000
					}
				}
			}
		}
	}
}
MOTION
Frames: 9
Frame Time: 0.016667
0.446817 3.294648 -16.611782 4.637235 13.963985 1.174984 -0.000000 0.000004 -6.386977 2.881857 -13.231717 2.822754 -0.000000 0.000003 -5.091928 -5.294651 7.606905 3.592870 0.000000 0.417764 -3.237668 -6.410674 -1.117809 -5.954105 0.841261 -0.110428 -4.111458 -0.403473 -6.542618 21.624297 3.001870 0.000001 -0.000005 9.890719 -10.652286 -8.268995 5.886185 -0.000001 -0.000004 9.213678 -15.367473 6.698725 5.470436 0.000000 0.000002 -22.061511 -12.886842 -15.788092 -0.829657 -0.110427 -4.111455 6.229798 -1.910979 -17.108531 -3.001868 0.000001 0.000001 -23.219122 23.058606 10.980318 -5.886181 -0.000001 -0.000003 -81.401505 41.813701 -43.730727 -5.470443 -0.000004 0.000001 -3.002502 5.742618 -33.037980 2.088814 0.000000 0.000002 -17.675368 -35.551223 16.405614 0.000001 -0.000004 8.784827 -9.710051 47.764677 -11.735759 -0.000002 -0.000004 9.209891 -22.050641 -13.382768 -5.027690 -0.000000 3.133221 1.357732 0.000006 0.000001 -0.000001 -2.088814 -0.000000 -0.000004 -14.343069 -24.877110 -41.695419 0.000001 -0.000003 8.784829 21.535796 37.035796 25.553380 0.000001 -0.000005 9.209894 36.339315 -4.879246 6.010870 -0.000001 3.133219 1.357730 -0.000002 0.000000 -0.000000 
0.445908 3.296458 -16.613991 4.721326 13.958705 1.140208 -0.000000 0.000003 -6.386979 2.839672 -13.215172 2.860776 -0.000000 0.000003 -5.091919 -5.307543 7.589051 3.591661 0.000000 0.417766 -3.237669 -6.425912 -1.163388 -5.952184 0.841261 -0.110427 -4.111456 -0.406734 -6.551884 21.620614 3.001873 -0.000001 -0.000010 9.812143 -10.833855 -8.251249 5.886185 -0.000000 -0.000007 9.157979 -15.410660 6.667065 5.470438 0.000003 -0.000004 -22.059505 -12.933018 -15.747363 -0.829657 -0.110427 -4.111459 6.200248 -1.905638 -17.118495 -3.001868 0.000001 0.000002 -23.188682 23.072801 10.941969 -5.886181 0.000003 -0.000001 -81.340156 41.810617 -43.808786 -5.470439 -0.000006 -0.000004 -2.968689 5.690523 -33.094165 2.088814 0.000000 -0.000005 -17.617327 -35.501988 16.491492 0.000001 -0.000002 8.784826 -9.725652 47.742312 -11.780528 0.000000 -0.000004 9.209894 -22.117490 -13.379470 -5.045915 -0.000000 3.133218 1.357730 0.000000 -0.000001 0.000002 -2.088814 -0.000001 -0.000007 -14.211831 -24.985100 -41.607648 -0.000002 -0.000004 8.784826 21.369575 36.999128 25.579946 0.000002 -0.000004 9.209887 36.269449 -4.829767 5.965513 -0.000000 3.133218 1.357730 0.000005 0.000000 -0.000001 
0.444595 3.298321 -16.615969 4.793634 13.946120 1.093914 0.000000 0.000004 -6.386976 2.795093 -13.189439 2.898327 -0.000000 0.000001 -5.091928 -5.316896 7.558885 3.615767 -0.000000 0.417766 -3.237664 -6.441285 -1.205981 -5.962398 0.841263 -0.110427 -4.111459 -0.394932 -6.553209 21.616275 3.001868 -0.000002 -0.000004 9.732692 -10.925075 -8.220717 5.886184 -0.000001 -0.000004 9.131469 -15.421736 6.671818 5.470432 -0.000001 0.000001 -22.055304 -12.941714 -15.757477 -0.829657 -0.110426 -4.111459 6.185809 -1.883572 -17.127886 -3.001868 0.000001 0.000001 -23.128655 22.956063 10.896725 -5.886181 0.000002 -0.000004 -81.424550 41.785998 -43.695958 -5.470440 -0.000006 -0.000002 -2.946288 5.712664 -33.119673 2.088814 -0.000000 0.000000 -17.653245 -35.482122 16.515742 -0.000001 -0.000006 8.784825 -9.784687 47.734109 -11.699110 -0.000002 -0.000006 9.209891 -22.107837 -13.385320 -5.071576 -0.000002 3.133221 1.357727 0.000003 0.000001 0.000001 -2.088814 -0.000000 0.000002 -14.003172 -25.146209 -41.475395 0.000003 -0.000005 8.784825 21.167017 36.982800 25.575230 0.000002 -0.000004 9.209887 36.195160 -4.768564 5.891031 -0.000001 3.133221 1.357730 0.000006 -0.000001 0.000000 
0.443999 3.300380 -16.616749 4.863362 13.927557 1.071723 0.000000 0.000004 -6.386978 2.741774 -13.154839 2.910458 -0.000000 0.000003 -5.091932 -5.327947 7.528449 3.624874 0.000000 0.417763 -3.237663 -6.454793 -1.262410 -5.949533 0.841263 -0.110427 -4.111463 -0.383205 -6.560926 21.602193 3.001869 0.000001 -0.000008 9.653635 -10.991209 -8.172757 5.886183 -0.000001 -0.000002 9.127266 -15.388957 6.680569 5.470429 0.000002 -0.000006 -22.017670 -12.913205 -15.762985 -0.829657 -0.110427 -4.111461 6.191078 -1.855115 -17.132285 -3.001868 0.000001 -0.000002 -23.110567 22.915293 10.855988 -5.886181 0.000003 -0.000001 -81.376684 41.777060 -43.736085 -5.470440 -0.000003 -0.000005 -2.912289 5.684515 -33.167675 2.088814 -0.000000 -0.000002 -17.701757 -35.440383 16.530707 -0.000001 -0.000004 8.784825 -9.777694 47.714619 -11.699861 -0.000002 -0.000003 9.209890 -22.126244 -13.397077 -5.076773 -0.000000 3.133221 1.357730 -0.000002 0.000002 -0.000001 -2.088814 -0.000000 -0.000000 -13.803715 -25.307313 -41.367389 -0.000001 -0.000004 8.784825 21.029765 37.012297 25.522778 0.000003 -0.000005 9.209891 36.057959 -4.731429 5.854539 -0.000001 3.133218 1.357730 0.000002 -0.000002 0.000001 
0.443863 3.302091 -16.617662 4.923542 13.906467 1.059957 0.000000 0.000003 -6.386983 2.694824 -13.108183 2.916417 0.000000 0.000003 -5.091924 -5.334785 7.501577 3.631595 -0.000000 0.417767 -3.237657 -6.462702 -1.328006 -5.926871 0.841263 -0.110427 -4.111455 -0.363761 -6.579470 21.600029 3.001870 0.000001 -0.000005 9.576324 -11.016821 -8.145845 5.886182 -0.000002 0.000002 9.144251 -15.377631 6.710159 5.470430 -0.000001 0.000001 -21.974928 -12.911140 -15.762494 -0.829657 -0.110427 -4.111457 6.170261 -1.865015 -17.133832 -3.001869 0.000001 0.000003 -23.063560 22.888795 10.826603 -5.886178 0.000000 -0.000002 -81.374054 41.760661 -43.731061 -5.470440 0.000002 -0.000001 -2.877600 5.660911 -33.199924 2.088814 -0.000000 -0.000006 -17.756742 -35.395635 16.538644 -0.000000 -0.000004 8.784825 -9.775409 47.696919 -11.703252 -0.000003 -0.000004 9.209887 -22.125848 -13.409194 -5.087011 0.000000 3.133220 1.357730 -0.000004 -0.000003 -0.000001 -2.088814 0.000000 -0.000003 -13.651794 -25.423084 -41.304483 -0.000001 -0.000004 8.784824 20.889145 37.027603 25.528672 0.000002 -0.000004 9.209891 35.980774 -4.690702 5.821907 -0.000000 3.133218 1.357730 -0.000004 0.000005 0.000001 
0.443341 3.304087 -16.617748 4.957712 13.885019 1.059237 0.000000 0.000003 -6.386981 2.680278 -13.066019 2.961796 0.000000 0.000003 -5.091925 -5.351141 7.489328 3.528805 0.000000 0.417766 -3.237671 -6.463942 -1.399365 -5.841493 0.841264 -0.110427 -4.111455 -0.373767 -6.588664 21.486792 3.001870 -0.000000 0.000004 9.551733 -10.977951 -8.043949 5.886185 -0.000002 0.000002 9.165226 -15.346721 6.729140 5.470433 -0.000001 -0.000009 -21.941122 -12.894887 -15.723239 -0.829657 -0.110427 -4.111458 6.176593 -1.871610 -17.251859 -3.001868 -0.000001 0.000003 -23.087815 22.824552 10.886703 -5.886185 0.000000 -0.000005 -81.368959 41.763981 -43.729337 -5.470437 -0.000006 -0.000004 -2.897667 5.676839 -33.190143 2.088814 -0.000000 -0.000004 -17.816757 -35.355788 16.531698 -0.000000 -0.000001 8.784826 -9.727024 47.677640 -11.737314 -0.000002 -0.000004 9.209897 -22.134039 -13.417750 -5.092000 0.000000 3.133219 1.357730 0.000003 -0.000002 -0.000000 -2.088814 -0.000000 -0.000003 -13.518437 -25.493930 -41.272122 0.000000 -0.000003 8.784826 20.872295 37.073437 25.505226 0.000002 -0.000004 9.209892 35.823219 -4.661179 5.803601 -0.000000 3.133221 1.357730 0.000002 0.000002 0.000004 
0.443385 3.306700 -16.618320 4.971434 13.868586 1.056312 0.000000 0.000004 -6.386974 2.654720 -13.038224 2.935059 -0.000000 0.000004 -5.091928 -5.356847 7.470260 3.597943 0.000000 0.417764 -3.237658 -6.476739 -1.448635 -5.840837 0.841263 -0.110425 -4.111460 -0.360894 -6.586002 21.524580 3.001869 -0.000001 -0.000005 9.513123 -10.860776 -8.027287 5.886181 -0.000002 0.000004 9.222675 -15.358952 6.772439 5.470441 -0.000001 -0.000010 -21.922216 -12.928525 -15.661414 -0.829657 -0.110427 -4.111463 6.190880 -1.857137 -17.214884 -3.001867 0.000001 -0.000000 -23.063182 22.832257 10.848905 -5.886181 -0.000001 -0.000001 -81.253413 41.773201 -43.829713 -5.470439 -0.000000 -0.000006 -2.873862 5.660590 -33.213892 2.088814 0.000000 0.000002 -17.867198 -35.324874 16.526631 0.000001 -0.000003 8.784826 -9.717397 47.659831 -11.741302 -0.000002 -0.000004 9.209888 -22.107362 -13.425001 -5.081376 0.000000 3.133218 1.357727 -0.000004 -0.000006 0.000001 -2.088814 0.000000 0.000002 -13.412642 -25.518869 -41.263669 -0.000001 -0.000006 8.784826 20.799021 37.078700 25.564245 0.000003 -0.000005 9.209891 35.747485 -4.623011 5.811030 -0.000001 3.133218 1.357730 0.000004 -0.000001 -0.000001 
0.444179 3.309290 -16.618488 4.977694 13.849803 1.063427 -0.000000 0.000003 -6.386974 2.652116 -13.008426 2.919599 0.000000 0.000001 -5.091924 -5.369792 7.459542 3.624662 0.000000 0.417767 -3.237665 -6.489707 -1.498317 -5.811265 0.841263 -0.110427 -4.111459 -0.403036 -6.567313 21.517770 3.001871 -0.000001 -0.000002 9.534759 -10.772573 -7.972566 5.886184 0.000002 -0.000003 9.266785 -15.342837 6.817094 5.470430 0.000001 -0.000000 -21.899391 -12.932576 -15.603895 -0.829657 -0.110427 -4.111458 6.184823 -1.833961 -17.218425 -3.001868 0.000001 0.000002 -23.018393 22.748222 10.815028 -5.886176 -0.000003 -0.000004 -81.272721 41.759230 -43.777486 -5.470434 -0.000001 -0.000001 -2.877989 5.686646 -33.214708 2.088814 -0.000000 0.000003 -17.958005 -35.295849 16.489880 0.000000 -0.000001 8.784827 -9.705856 47.643397 -11.728392 -0.000001 -0.000004 9.209898 -22.055576 -13.431407 -5.083408 -0.000000 3.133218 1.357727 0.000009 -0.000004 0.000000 -2.088814 -0.000000 0.000000 -13.393169 -25.477733 -41.327572 0.000004 -0.000004 8.784827 20.865878 37.127033 25.625939 0.000003 -0.000005 9.209890 35.636563 -4.556330 5.817402 -0.000002 3.133217 1.357730 0.000000 -0.000000 0.000001 
0.445301 3.312234 -16.618561 4.958387 13.836191 1.072109 -0.000000 0.000003 -6.386975 2.657447 -13.011510 2.912673 -0.000000 0.000004 -5.091928 -5.378426 7.523478 3.629884 0.000000 0.417763 -3.237666 -6.493731 -1.592060 -5.771460 0.841261 -0.110427 -4.111461 -0.371840 -6.494105 21.493711 3.001866 -0.000001 -0.000002 9.501206 -10.600687 -7.909398 5.886185 0.000003 -0.000003 9.333326 -15.365998 6.886339 5.470437 -0.000004 -0.000005 -21.872289 -12.976018 -15.568103 -0.829657 -0.110424 -4.111459 6.148977 -1.784694 -17.270000 -3.001868 0.000001 0.000001 -22.950534 22.655244 10.842269 -5.886178 0.000000 -0.000002 -81.307644 41.758687 -43.719546 -5.470438 -0.000002 -0.000009 -2.906508 5.730150 -33.143213 2.088814 0.000000 -0.000002 -18.003081 -35.272524 16.476438 0.000002 -0.000003 8.784824 -9.731449 47.634566 -11.717086 0.000001 -0.000004 9.209887 -21.985242 -13.434333 -5.069532 0.000000 3.133220 1.357730 -0.000002 -0.000003 0.000001 -2.088814 -0.000000 -0.000001 -13.407849 -25.401842 -41.405857 0.000002 -0.000003 8.784824 20.936526 37.161936 25.696567 0.000002 -0.000005 9.209890 35.560601 -4.498044 5.856179 -0.000000 3.133220 1.357730 -0.000003 0.000000 0.000002 
